<?xml version="1.0" encoding="utf-8"?>
<svg id="master-artboard" viewBox="0 0 657 493.5" version="1.1" xmlns="http://www.w3.org/2000/svg" x="0px" y="0px" style="enable-background:new 0 0 657 493.5;" width="657px" height="493.5px">

<g transform="matrix(1, 0, 0, 1, 0, 0)">
		<g>
			<g class="st0" style="opacity: 0.7;">
				
					<linearGradient id="SVGID_1_" gradientUnits="userSpaceOnUse" x1="931.1954" y1="403.9016" x2="310.2338" y2="-46.5997" gradientTransform="matrix(0.9952 9.750000e-02 -9.750000e-02 0.9952 26.7132 -31.6381)">
					<stop offset="0" style="stop-color:#666666"/>
					<stop offset="7.367843e-02" style="stop-color:#8F9090"/>
					<stop offset="0.1766" style="stop-color:#C3C4C4"/>
					<stop offset="0.2542" style="stop-color:#E4E5E5"/>
					<stop offset="0.2967" style="stop-color:#F0F1F1"/>
					<stop offset="0.3373" style="stop-color:#D1D2D2"/>
					<stop offset="0.4029" style="stop-color:#A5A6A6"/>
					<stop offset="0.4538" style="stop-color:#8A8A8A"/>
					<stop offset="0.4835" style="stop-color:#808080"/>
					<stop offset="0.5377" style="stop-color:#838383"/>
					<stop offset="0.5848" style="stop-color:#8E8E8E"/>
					<stop offset="0.6294" style="stop-color:#A0A0A0"/>
					<stop offset="0.6723" style="stop-color:#B9B9B9"/>
					<stop offset="0.7138" style="stop-color:#D9D9D9"/>
					<stop offset="0.7527" style="stop-color:#FFFFFF"/>
					<stop offset="0.8057" style="stop-color:#E3E3E3"/>
					<stop offset="0.9192" style="stop-color:#9C9C9C"/>
					<stop offset="1" style="stop-color:#666666"/>
				</linearGradient>
				<path d="M 657 0 L 509.6000061035156 0 L 365.3999938964844 208 L 657 115.69999694824219 Z" class="st1" style="fill: url('#SVGID_1_');"/>
				
					<linearGradient id="SVGID_2_" gradientUnits="userSpaceOnUse" x1="10.397" y1="576.852" x2="449.0171" y2="-556.2476" gradientTransform="matrix(0.9952 9.750000e-02 -9.750000e-02 0.9952 26.7132 -31.6381)">
					<stop offset="0" style="stop-color:#666666"/>
					<stop offset="7.367843e-02" style="stop-color:#8F9090"/>
					<stop offset="0.1766" style="stop-color:#C3C4C4"/>
					<stop offset="0.2542" style="stop-color:#E4E5E5"/>
					<stop offset="0.2967" style="stop-color:#F0F1F1"/>
					<stop offset="0.3373" style="stop-color:#D1D2D2"/>
					<stop offset="0.4029" style="stop-color:#A5A6A6"/>
					<stop offset="0.4538" style="stop-color:#8A8A8A"/>
					<stop offset="0.4835" style="stop-color:#808080"/>
					<stop offset="0.5377" style="stop-color:#838383"/>
					<stop offset="0.5848" style="stop-color:#8E8E8E"/>
					<stop offset="0.6294" style="stop-color:#A0A0A0"/>
					<stop offset="0.6723" style="stop-color:#B9B9B9"/>
					<stop offset="0.7138" style="stop-color:#D9D9D9"/>
					<stop offset="0.7527" style="stop-color:#FFFFFF"/>
					<stop offset="0.8057" style="stop-color:#E3E3E3"/>
					<stop offset="0.9192" style="stop-color:#9C9C9C"/>
					<stop offset="1" style="stop-color:#666666"/>
				</linearGradient>
				<path d="M 0 0 L 0 157.3000030517578 L 365.3999938964844 208 L 509.6000061035156 0 Z" class="st2" style="fill: url('#SVGID_2_');"/>
				
					<linearGradient id="SVGID_3_" gradientUnits="userSpaceOnUse" x1="10.397" y1="576.852" x2="449.0171" y2="-556.2476" gradientTransform="matrix(0.9952 9.750000e-02 -9.750000e-02 0.9952 26.7132 -31.6381)">
					<stop offset="0" style="stop-color:#666666"/>
					<stop offset="7.367843e-02" style="stop-color:#8F9090"/>
					<stop offset="0.1766" style="stop-color:#C3C4C4"/>
					<stop offset="0.2542" style="stop-color:#E4E5E5"/>
					<stop offset="0.2967" style="stop-color:#F0F1F1"/>
					<stop offset="0.3373" style="stop-color:#D1D2D2"/>
					<stop offset="0.4029" style="stop-color:#A5A6A6"/>
					<stop offset="0.4538" style="stop-color:#8A8A8A"/>
					<stop offset="0.4835" style="stop-color:#808080"/>
					<stop offset="0.5377" style="stop-color:#838383"/>
					<stop offset="0.5848" style="stop-color:#8E8E8E"/>
					<stop offset="0.6294" style="stop-color:#A0A0A0"/>
					<stop offset="0.6723" style="stop-color:#B9B9B9"/>
					<stop offset="0.7138" style="stop-color:#D9D9D9"/>
					<stop offset="0.7527" style="stop-color:#FFFFFF"/>
					<stop offset="0.8057" style="stop-color:#E3E3E3"/>
					<stop offset="0.9192" style="stop-color:#9C9C9C"/>
					<stop offset="1" style="stop-color:#666666"/>
				</linearGradient>
				<path d="M 0 0 L 0 157.3000030517578 L 365.3999938964844 208 L 509.6000061035156 0 Z" class="st3" style="fill: url('#SVGID_3_');"/>
				
					<linearGradient id="SVGID_4_" gradientUnits="userSpaceOnUse" x1="178.3965" y1="772.7647" x2="173.8286" y2="-396.6682" gradientTransform="matrix(0.9952 9.750000e-02 -9.750000e-02 0.9952 26.7132 -31.6381)">
					<stop offset="0" style="stop-color:#666666"/>
					<stop offset="7.367843e-02" style="stop-color:#8F9090"/>
					<stop offset="0.1766" style="stop-color:#C3C4C4"/>
					<stop offset="0.2542" style="stop-color:#E4E5E5"/>
					<stop offset="0.2967" style="stop-color:#F0F1F1"/>
					<stop offset="0.3373" style="stop-color:#D1D2D2"/>
					<stop offset="0.4029" style="stop-color:#A5A6A6"/>
					<stop offset="0.4538" style="stop-color:#8A8A8A"/>
					<stop offset="0.4835" style="stop-color:#808080"/>
					<stop offset="0.5377" style="stop-color:#838383"/>
					<stop offset="0.5848" style="stop-color:#8E8E8E"/>
					<stop offset="0.6294" style="stop-color:#A0A0A0"/>
					<stop offset="0.6723" style="stop-color:#B9B9B9"/>
					<stop offset="0.7138" style="stop-color:#D9D9D9"/>
					<stop offset="0.7527" style="stop-color:#FFFFFF"/>
					<stop offset="0.8057" style="stop-color:#E3E3E3"/>
					<stop offset="0.9192" style="stop-color:#9C9C9C"/>
					<stop offset="1" style="stop-color:#666666"/>
				</linearGradient>
				<path d="M 0 157.3000030517578 L 0 454.1000061035156 L 365.3999938964844 208 Z" class="st4" style="fill: url('#SVGID_4_');"/>
				
					<linearGradient id="SVGID_5_" gradientUnits="userSpaceOnUse" x1="360.4639" y1="283.2232" x2="1184.0902" y2="283.2232" gradientTransform="matrix(0.9952 9.750000e-02 -9.750000e-02 0.9952 26.7132 -31.6381)">
					<stop offset="0" style="stop-color:#666666"/>
					<stop offset="7.367843e-02" style="stop-color:#8F9090"/>
					<stop offset="0.1766" style="stop-color:#C3C4C4"/>
					<stop offset="0.2542" style="stop-color:#E4E5E5"/>
					<stop offset="0.2967" style="stop-color:#F0F1F1"/>
					<stop offset="0.3373" style="stop-color:#D1D2D2"/>
					<stop offset="0.4029" style="stop-color:#A5A6A6"/>
					<stop offset="0.4538" style="stop-color:#8A8A8A"/>
					<stop offset="0.4835" style="stop-color:#808080"/>
					<stop offset="0.5377" style="stop-color:#838383"/>
					<stop offset="0.5848" style="stop-color:#8E8E8E"/>
					<stop offset="0.6294" style="stop-color:#A0A0A0"/>
					<stop offset="0.6723" style="stop-color:#B9B9B9"/>
					<stop offset="0.7138" style="stop-color:#D9D9D9"/>
					<stop offset="0.7527" style="stop-color:#FFFFFF"/>
					<stop offset="0.8057" style="stop-color:#E3E3E3"/>
					<stop offset="0.9192" style="stop-color:#9C9C9C"/>
					<stop offset="1" style="stop-color:#666666"/>
				</linearGradient>
				<path d="M 657 493.5 L 657 115.9000015258789 L 365.3999938964844 208 L 452.6000061035156 493.5 Z" class="st5" style="fill: url('#SVGID_5_');"/>
				
					<linearGradient id="SVGID_6_" gradientUnits="userSpaceOnUse" x1="-85.2608" y1="521.6999" x2="483.529" y2="803.5585" gradientTransform="matrix(0.6056 0.4112 -1.2221 0.8214 915.6589 -129.107)">
					<stop offset="0" style="stop-color:#666666"/>
					<stop offset="7.367843e-02" style="stop-color:#8F9090"/>
					<stop offset="0.1766" style="stop-color:#C3C4C4"/>
					<stop offset="0.2542" style="stop-color:#E4E5E5"/>
					<stop offset="0.2967" style="stop-color:#F0F1F1"/>
					<stop offset="0.3373" style="stop-color:#D1D2D2"/>
					<stop offset="0.4029" style="stop-color:#A5A6A6"/>
					<stop offset="0.4538" style="stop-color:#8A8A8A"/>
					<stop offset="0.4835" style="stop-color:#808080"/>
					<stop offset="0.5377" style="stop-color:#838383"/>
					<stop offset="0.5848" style="stop-color:#8E8E8E"/>
					<stop offset="0.6294" style="stop-color:#A0A0A0"/>
					<stop offset="0.6723" style="stop-color:#B9B9B9"/>
					<stop offset="0.7138" style="stop-color:#D9D9D9"/>
					<stop offset="0.7527" style="stop-color:#FFFFFF"/>
					<stop offset="0.8057" style="stop-color:#E3E3E3"/>
					<stop offset="0.9192" style="stop-color:#9C9C9C"/>
					<stop offset="1" style="stop-color:#666666"/>
				</linearGradient>
				<path d="M 452.8999938964844 493.5 L 365.3999938964844 208 L 0 453.3999938964844 L 0 493.5 Z" class="st6" style="fill: url('#SVGID_6_');"/>
			</g>
			<g class="st7" style="opacity: 0.5;">
				
					<linearGradient id="SVGID_7_" gradientUnits="userSpaceOnUse" x1="931.1954" y1="403.9016" x2="310.2338" y2="-46.5997" gradientTransform="matrix(0.9952 9.750000e-02 -9.750000e-02 0.9952 26.7132 -31.6381)">
					<stop offset="0" style="stop-color:#FFFFFF"/>
					<stop offset="0.2686" style="stop-color:#FAFAFA"/>
					<stop offset="0.5649" style="stop-color:#EDEDED"/>
					<stop offset="0.8736" style="stop-color:#D7D7D7"/>
					<stop offset="1" style="stop-color:#CCCCCC"/>
				</linearGradient>
				<path d="M 657 0 L 509.6000061035156 0 L 365.3999938964844 208 L 657 115.69999694824219 Z" class="st8" style="fill: url('#SVGID_7_');"/>
				
					<linearGradient id="SVGID_8_" gradientUnits="userSpaceOnUse" x1="10.397" y1="576.852" x2="449.0171" y2="-556.2476" gradientTransform="matrix(0.9952 9.750000e-02 -9.750000e-02 0.9952 26.7132 -31.6381)">
					<stop offset="0" style="stop-color:#FFFFFF"/>
					<stop offset="0.2686" style="stop-color:#FAFAFA"/>
					<stop offset="0.5649" style="stop-color:#EDEDED"/>
					<stop offset="0.8736" style="stop-color:#D7D7D7"/>
					<stop offset="1" style="stop-color:#CCCCCC"/>
				</linearGradient>
				<path d="M 0 0 L 0 157.3000030517578 L 365.3999938964844 208 L 509.6000061035156 0 Z" class="st9" style="fill: url('#SVGID_8_');"/>
				
					<linearGradient id="SVGID_9_" gradientUnits="userSpaceOnUse" x1="10.397" y1="576.852" x2="449.0171" y2="-556.2476" gradientTransform="matrix(0.9952 9.750000e-02 -9.750000e-02 0.9952 26.7132 -31.6381)">
					<stop offset="0" style="stop-color:#FFFFFF"/>
					<stop offset="0.2686" style="stop-color:#FAFAFA"/>
					<stop offset="0.5649" style="stop-color:#EDEDED"/>
					<stop offset="0.8736" style="stop-color:#D7D7D7"/>
					<stop offset="1" style="stop-color:#CCCCCC"/>
				</linearGradient>
				<path d="M 0 0 L 0 157.3000030517578 L 365.3999938964844 208 L 509.6000061035156 0 Z" class="st10" style="fill: url('#SVGID_9_');"/>
				
					<linearGradient id="SVGID_10_" gradientUnits="userSpaceOnUse" x1="178.3965" y1="772.7647" x2="173.8286" y2="-396.6682" gradientTransform="matrix(0.9952 9.750000e-02 -9.750000e-02 0.9952 26.7132 -31.6381)">
					<stop offset="0" style="stop-color:#FFFFFF"/>
					<stop offset="0.2686" style="stop-color:#FAFAFA"/>
					<stop offset="0.5649" style="stop-color:#EDEDED"/>
					<stop offset="0.8736" style="stop-color:#D7D7D7"/>
					<stop offset="1" style="stop-color:#CCCCCC"/>
				</linearGradient>
				<path d="M 0 157.3000030517578 L 0 454.1000061035156 L 365.3999938964844 208 Z" class="st11" style="fill: url('#SVGID_10_');"/>
				
					<linearGradient id="SVGID_11_" gradientUnits="userSpaceOnUse" x1="360.4639" y1="283.2232" x2="1184.0902" y2="283.2232" gradientTransform="matrix(0.9952 9.750000e-02 -9.750000e-02 0.9952 26.7132 -31.6381)">
					<stop offset="0" style="stop-color:#FFFFFF"/>
					<stop offset="0.2686" style="stop-color:#FAFAFA"/>
					<stop offset="0.5649" style="stop-color:#EDEDED"/>
					<stop offset="0.8736" style="stop-color:#D7D7D7"/>
					<stop offset="1" style="stop-color:#CCCCCC"/>
				</linearGradient>
				<path d="M 657 493.5 L 657 115.9000015258789 L 365.3999938964844 208 L 452.6000061035156 493.5 Z" class="st12" style="fill: url('#SVGID_11_');"/>
				
					<linearGradient id="SVGID_12_" gradientUnits="userSpaceOnUse" x1="-85.2608" y1="521.6999" x2="483.529" y2="803.5585" gradientTransform="matrix(0.6056 0.4112 -1.2221 0.8214 915.6589 -129.107)">
					<stop offset="0" style="stop-color:#FFFFFF"/>
					<stop offset="0.2686" style="stop-color:#FAFAFA"/>
					<stop offset="0.5649" style="stop-color:#EDEDED"/>
					<stop offset="0.8736" style="stop-color:#D7D7D7"/>
					<stop offset="1" style="stop-color:#CCCCCC"/>
				</linearGradient>
				<path d="M 452.8999938964844 493.5 L 365.3999938964844 208 L 0 453.3999938964844 L 0 493.5 Z" class="st13" style="fill: url('#SVGID_12_');"/>
			</g>
		</g>
	</g>

<g transform="matrix(1, 0, 0, 1, 0, 0)">
		<g>
			
				<linearGradient id="SVGID_13_" gradientUnits="userSpaceOnUse" x1="39.3989" y1="260.0101" x2="585.858" y2="309.5283" gradientTransform="matrix(-0.9681 -0.2505 -0.2505 0.9681 701.844 59.0973)">
				<stop offset="0" style="stop-color:#F6ADCD"/>
				<stop offset="1" style="stop-color:#0D2430"/>
			</linearGradient>
			<path class="st15" d="M250,428.1c127.1,34.7,311.3-13.5,374.6-99.4c63.3-85.9-147.8-226.4-321.3-262.1&#10;&#9;&#9;&#9;&#9;C129.9,30.8,3.4,224.5,74,317.8C126.4,387,212.5,417.9,250,428.1z" style="opacity: 0.3; fill: url('#SVGID_13_');"/>
			
				<linearGradient id="SVGID_14_" gradientUnits="userSpaceOnUse" x1="17.6517" y1="280.3726" x2="573.4979" y2="330.7414" gradientTransform="matrix(-0.896 -0.4441 -0.4441 0.896 724.2611 112.5566)">
				<stop offset="0" style="stop-color:#F6ADCD"/>
				<stop offset="1" style="stop-color:#0D2430"/>
			</linearGradient>
			<path class="st16" d="M210.3,409.7C329.6,470.8,523,461.3,604,389c81-72.3-99.9-256.3-265-328.1C173.8-10.9,7.4,155.4,58.2,263&#10;&#9;&#9;&#9;&#9;C95.8,342.9,175.2,391.7,210.3,409.7z" style="opacity: 0.8; fill: url('#SVGID_14_');"/>
			
				<linearGradient id="SVGID_15_" gradientUnits="userSpaceOnUse" x1="68.8212" y1="268.5664" x2="528.037" y2="310.1789" gradientTransform="matrix(-1.091 -0.2154 -0.2073 1.05 705.5762 38.0411)">
				<stop offset="0" style="stop-color:#F6ADCD"/>
				<stop offset="1" style="stop-color:#0D2430"/>
			</linearGradient>
			<path class="st17" d="M258,435.6C378.4,461,547,409.2,600.8,329c53.7-80.2-151.5-196.9-315.2-221.1&#10;&#9;&#9;&#9;&#9;C121.9,83.7,15.9,263.7,87.3,344.4C140.3,404.3,222.4,428.1,258,435.6z" style="fill: url('#SVGID_15_');"/>
			
				<linearGradient id="SVGID_16_" gradientUnits="userSpaceOnUse" x1="68.262" y1="271.8677" x2="527.4819" y2="313.4806" gradientTransform="matrix(-1.1297 -0.3931 -0.3518 1.0108 732.3369 78.3633)">
				<stop offset="0" style="stop-color:#F6ADCD"/>
				<stop offset="1" style="stop-color:#0D2430"/>
			</linearGradient>
			<path class="st18" d="M207.2,404.2c124.5,45,309.8,21.1,376.9-49.9c67-71-135.9-220.8-306.4-271.7&#10;&#9;&#9;&#9;&#9;C107.2,31.7-27.8,193.4,37.7,285.4C86.4,353.7,170.5,390.9,207.2,404.2z" style="opacity: 0.5; fill: url('#SVGID_16_');"/>
			
				<linearGradient id="SVGID_17_" gradientUnits="userSpaceOnUse" x1="91.2156" y1="231.3451" x2="589.593" y2="276.5063" gradientTransform="matrix(-1.0419 1.830000e-02 1.820000e-02 1.0352 660.9316 -10.0486)">
				<stop offset="0" style="stop-color:#F6ADCD"/>
				<stop offset="1" style="stop-color:#0D2430"/>
			</linearGradient>
			<path class="st19" d="M283.2,434.9c125.2-0.5,281.6-91,317.8-185.1c36.2-94.2-192.9-168.6-360.8-157.3&#10;&#9;&#9;&#9;&#9;C72.3,103.8,5.6,311.9,93.9,378.9C159.5,428.7,246.3,435.1,283.2,434.9z" style="opacity: 0.32; fill: url('#SVGID_17_');"/>
			
				<linearGradient id="SVGID_18_" gradientUnits="userSpaceOnUse" x1="66.5722" y1="257.7242" x2="525.7802" y2="299.3361" gradientTransform="matrix(-1.0347 -0.1241 -0.1233 1.028 684.5064 21.0756)">
				<stop offset="0" style="stop-color:#F6ADCD"/>
				<stop offset="1" style="stop-color:#0D2430"/>
			</linearGradient>
			<path class="st20" d="M296.3,427.7c114.4,15.3,268.5-47.6,313.4-129c44.9-81.4-154.9-178.2-309.6-189&#10;&#9;&#9;&#9;&#9;C145.5,98.9,58.4,280.5,130.6,352.8C184.2,406.5,262.6,423.2,296.3,427.7z" style="opacity: 0.7; fill: url('#SVGID_18_');"/>
			
				<linearGradient id="SVGID_19_" gradientUnits="userSpaceOnUse" x1="80.6705" y1="269.952" x2="539.8976" y2="311.5655" gradientTransform="matrix(-0.9892 -0.3277 -0.3256 0.9828 715.9302 69.5912)">
				<stop offset="0" style="stop-color:#F6ADCD"/>
				<stop offset="1" style="stop-color:#0D2430"/>
			</linearGradient>
			<path class="st21" d="M236.6,398.1c109,37.7,272.6,6.8,332.8-64c60.2-70.8-116.3-205.5-265.7-246.9&#10;&#9;&#9;&#9;&#9;C154.2,45.9,32.8,206.5,89.1,291.7C131,355,204.4,387,236.6,398.1z" style="opacity: 0.7; fill: url('#SVGID_19_');"/>
			
				<linearGradient id="SVGID_20_" gradientUnits="userSpaceOnUse" x1="95.4326" y1="254.2867" x2="554.6467" y2="295.899" gradientTransform="matrix(-1.0284 -0.1684 -0.1673 1.0217 693.4721 29.8868)">
				<stop offset="0" style="stop-color:#F6ADCD"/>
				<stop offset="1" style="stop-color:#0D2430"/>
			</linearGradient>
			<path class="st22" d="M259.1,411.1c113.6,20.2,270.3-36,318.6-115.4C626,216.2,430.6,111,276.5,93.5&#10;&#9;&#9;&#9;&#9;C122.5,76.1,27.7,253.8,96.7,329.2C148,385.1,225.6,405.1,259.1,411.1z" style="opacity: 0.8; fill: url('#SVGID_20_');"/>
			
				<linearGradient id="SVGID_21_" gradientUnits="userSpaceOnUse" x1="96.1991" y1="254.1343" x2="555.4113" y2="295.7465" gradientTransform="matrix(-1.056 -0.1729 -0.1673 1.0217 696.0451 30.4618)">
				<stop offset="0" style="stop-color:#F6ADCD"/>
				<stop offset="1" style="stop-color:#0D2430"/>
			</linearGradient>
			<path class="st23" d="M251.1,409.8c116.7,20.7,277.2-34.9,326.5-114.2c49.2-79.3-151.7-185.4-309.9-203.5&#10;&#9;&#9;&#9;&#9;C109.5,74,13.1,251.4,84.2,327.1C137,383.3,216.7,403.7,251.1,409.8z" style="opacity: 0.9; fill: url('#SVGID_21_');"/>
			<path class="st24" d="M114.2,97.6c55.9-48,140.5-73.4,224.9-36.7c26.3,11.4,53,25.7,79,41.9c8.3,3.5,16.6,7.2,24.8,11&#10;&#9;&#9;&#9;&#9;c88.4,23.9,158.6,64.7,161.9,112.7c30.9,36.2,41.9,72.5,20,102.2c-0.5,0.7-1.1,1.4-1.6,2.1c3.5,22.9-1.9,43-18.9,58.2&#10;&#9;&#9;&#9;&#9;c-67.2,59.9-211.6,76.7-327,45.9c-39.7-0.6-120.9-8.7-183.1-55.9c-22-16.7-34.3-42.1-38-71.1c-6.5-7.1-12.6-14.6-18.2-22.5&#10;&#9;&#9;&#9;&#9;C-4,226.8,35.7,139.8,114.2,97.6z" style="fill: rgb(145, 153, 175);"/>
			
				<linearGradient id="SVGID_22_" gradientUnits="userSpaceOnUse" x1="109.2586" y1="296.9594" x2="520.4011" y2="296.9594" gradientTransform="matrix(-1.0011 -0.2574 -0.2562 0.9838 712.1252 59.036)">
				<stop offset="0" style="stop-color:#F6ADCD"/>
				<stop offset="1" style="stop-color:#0D2430"/>
			</linearGradient>
			<path class="st25" d="M262.9,387.4c96.2,17,228.4-27.7,268.8-91.9c40.4-64.2-125.5-150.8-255.9-165.8&#10;&#9;&#9;&#9;&#9;C145.5,114.7,66.4,258.5,125.2,320C168.8,365.7,234.6,382.4,262.9,387.4z" style="opacity: 0.9; fill: url('#SVGID_22_');"/>
			<path class="st26" d="M265.7,379.7c93.1,16.5,221.1-27.8,260.4-91.1c39.3-63.2-121-147.9-247.2-162.4&#10;&#9;&#9;&#9;&#9;C152.8,111.8,75.8,253.4,132.5,313.7C174.7,358.6,238.3,374.8,265.7,379.7z" style="opacity: 0.3; fill: rgb(255, 255, 255);"/>
			<path class="st27" d="M261.7,370.9c90.1,16,214.1-27,252.1-88.2c38-61.2-117.2-143.2-239.4-157.2&#10;&#9;&#9;&#9;&#9;C152.3,111.6,77.8,248.6,132.7,307C173.5,350.5,235.1,366.2,261.7,370.9z" style="opacity: 0.4; fill: rgb(255, 255, 255);"/>
			<path class="st28" d="M263.3,355.9c84.3,14.9,200.3-25.4,235.9-82.8c35.6-57.4-109.5-134.3-223.8-147.4&#10;&#9;&#9;&#9;&#9;C161.2,112.6,91.4,241.2,142.8,296C180.9,336.7,238.5,351.5,263.3,355.9z" style="opacity: 0.5; fill: rgb(255, 255, 255);"/>
			<path class="st29" d="M264.8,346.6c84.3,14.9,199.9-23.1,235.1-78c35.2-54.9-110.3-129.7-224.5-143&#10;&#9;&#9;&#9;&#9;C161.2,112.4,92.4,235.4,144,288.4C182.4,327.7,240,342.3,264.8,346.6z" style="opacity: 0.6; fill: rgb(255, 255, 255);"/>
		</g>
		<g>
			
				<linearGradient id="SVGID_23_" gradientUnits="userSpaceOnUse" x1="39.3989" y1="260.0101" x2="585.858" y2="309.5283" gradientTransform="matrix(-0.9681 -0.2505 -0.2505 0.9681 701.844 59.0973)">
				<stop offset="0" style="stop-color:#F6B1CF"/>
				<stop offset="1" style="stop-color:#082635"/>
			</linearGradient>
			<path class="st30" d="M250,428.1c127.1,34.7,311.3-13.5,374.6-99.4c63.3-85.9-147.8-226.4-321.3-262.1&#10;&#9;&#9;&#9;&#9;C129.9,30.8,3.4,224.5,74,317.8C126.4,387,212.5,417.9,250,428.1z" style="opacity: 0.3; fill: url('#SVGID_23_');"/>
			
				<linearGradient id="SVGID_24_" gradientUnits="userSpaceOnUse" x1="17.6517" y1="280.3726" x2="573.4979" y2="330.7414" gradientTransform="matrix(-0.896 -0.4441 -0.4441 0.896 724.2611 112.5566)">
				<stop offset="0" style="stop-color:#F6B1CF"/>
				<stop offset="1" style="stop-color:#082635"/>
			</linearGradient>
			<path class="st31" d="M210.3,409.7C329.6,470.8,523,461.3,604,389c81-72.3-99.9-256.3-265-328.1C173.8-10.9,7.4,155.4,58.2,263&#10;&#9;&#9;&#9;&#9;C95.8,342.9,175.2,391.7,210.3,409.7z" style="opacity: 0.8; fill: url('#SVGID_24_');"/>
			
				<linearGradient id="SVGID_25_" gradientUnits="userSpaceOnUse" x1="68.8212" y1="268.5664" x2="528.037" y2="310.1789" gradientTransform="matrix(-1.091 -0.2154 -0.2073 1.05 705.5762 38.0411)">
				<stop offset="0" style="stop-color:#F6B1CF"/>
				<stop offset="1" style="stop-color:#082635"/>
			</linearGradient>
			<path class="st32" d="M258,435.6C378.4,461,547,409.2,600.8,329c53.7-80.2-151.5-196.9-315.2-221.1&#10;&#9;&#9;&#9;&#9;C121.9,83.7,15.9,263.7,87.3,344.4C140.3,404.3,222.4,428.1,258,435.6z" style="fill: url('#SVGID_25_');"/>
			
				<linearGradient id="SVGID_26_" gradientUnits="userSpaceOnUse" x1="68.262" y1="271.8677" x2="527.4819" y2="313.4806" gradientTransform="matrix(-1.1297 -0.3931 -0.3518 1.0108 732.3369 78.3633)">
				<stop offset="0" style="stop-color:#F6B1CF"/>
				<stop offset="1" style="stop-color:#082635"/>
			</linearGradient>
			<path class="st33" d="M207.2,404.2c124.5,45,309.8,21.1,376.9-49.9c67-71-135.9-220.8-306.4-271.7&#10;&#9;&#9;&#9;&#9;C107.2,31.7-27.8,193.4,37.7,285.4C86.4,353.7,170.5,390.9,207.2,404.2z" style="opacity: 0.5; fill: url('#SVGID_26_');"/>
			
				<linearGradient id="SVGID_27_" gradientUnits="userSpaceOnUse" x1="91.2156" y1="231.3451" x2="589.593" y2="276.5063" gradientTransform="matrix(-1.0419 1.830000e-02 1.820000e-02 1.0352 660.9316 -10.0486)">
				<stop offset="0" style="stop-color:#F6B1CF"/>
				<stop offset="1" style="stop-color:#082635"/>
			</linearGradient>
			<path class="st34" d="M283.2,434.9c125.2-0.5,281.6-91,317.8-185.1c36.2-94.2-192.9-168.6-360.8-157.3&#10;&#9;&#9;&#9;&#9;C72.3,103.8,5.6,311.9,93.9,378.9C159.5,428.7,246.3,435.1,283.2,434.9z" style="opacity: 0.32; fill: url('#SVGID_27_');"/>
			
				<linearGradient id="SVGID_28_" gradientUnits="userSpaceOnUse" x1="66.5722" y1="257.7242" x2="525.7802" y2="299.3361" gradientTransform="matrix(-1.0347 -0.1241 -0.1233 1.028 684.5064 21.0756)">
				<stop offset="0" style="stop-color:#F6B1CF"/>
				<stop offset="1" style="stop-color:#082635"/>
			</linearGradient>
			<path class="st35" d="M296.3,427.7c114.4,15.3,268.5-47.6,313.4-129c44.9-81.4-154.9-178.2-309.6-189&#10;&#9;&#9;&#9;&#9;C145.5,98.9,58.4,280.5,130.6,352.8C184.2,406.5,262.6,423.2,296.3,427.7z" style="opacity: 0.7; fill: url('#SVGID_28_');"/>
			
				<linearGradient id="SVGID_29_" gradientUnits="userSpaceOnUse" x1="80.6705" y1="269.952" x2="539.8976" y2="311.5655" gradientTransform="matrix(-0.9892 -0.3277 -0.3256 0.9828 715.9302 69.5912)">
				<stop offset="0" style="stop-color:#F6B1CF"/>
				<stop offset="1" style="stop-color:#082635"/>
			</linearGradient>
			<path class="st36" d="M236.6,398.1c109,37.7,272.6,6.8,332.8-64c60.2-70.8-116.3-205.5-265.7-246.9&#10;&#9;&#9;&#9;&#9;C154.2,45.9,32.8,206.5,89.1,291.7C131,355,204.4,387,236.6,398.1z" style="opacity: 0.7; fill: url('#SVGID_29_');"/>
			
				<linearGradient id="SVGID_30_" gradientUnits="userSpaceOnUse" x1="95.4326" y1="254.2867" x2="554.6467" y2="295.899" gradientTransform="matrix(-1.0284 -0.1684 -0.1673 1.0217 693.4721 29.8868)">
				<stop offset="0" style="stop-color:#F6B1CF"/>
				<stop offset="1" style="stop-color:#082635"/>
			</linearGradient>
			<path class="st37" d="M259.1,411.1c113.6,20.2,270.3-36,318.6-115.4C626,216.2,430.6,111,276.5,93.5&#10;&#9;&#9;&#9;&#9;C122.5,76.1,27.7,253.8,96.7,329.2C148,385.1,225.6,405.1,259.1,411.1z" style="opacity: 0.8; fill: url('#SVGID_30_');"/>
			
				<linearGradient id="SVGID_31_" gradientUnits="userSpaceOnUse" x1="96.1991" y1="254.1343" x2="555.4113" y2="295.7465" gradientTransform="matrix(-1.056 -0.1729 -0.1673 1.0217 696.0451 30.4618)">
				<stop offset="0" style="stop-color:#F6B1CF"/>
				<stop offset="1" style="stop-color:#082635"/>
			</linearGradient>
			<path class="st38" d="M251.1,409.8c116.7,20.7,277.2-34.9,326.5-114.2c49.2-79.3-151.7-185.4-309.9-203.5&#10;&#9;&#9;&#9;&#9;C109.5,74,13.1,251.4,84.2,327.1C137,383.3,216.7,403.7,251.1,409.8z" style="opacity: 0.9; fill: url('#SVGID_31_');"/>
			<path class="st39" d="M114.2,97.6c55.9-48,140.5-73.4,224.9-36.7c26.3,11.4,53,25.7,79,41.9c8.3,3.5,16.6,7.2,24.8,11&#10;&#9;&#9;&#9;&#9;c88.4,23.9,158.6,64.7,161.9,112.7c30.9,36.2,41.9,72.5,20,102.2c-0.5,0.7-1.1,1.4-1.6,2.1c3.5,22.9-1.9,43-18.9,58.2&#10;&#9;&#9;&#9;&#9;c-67.2,59.9-211.6,76.7-327,45.9c-39.7-0.6-120.9-8.7-183.1-55.9c-22-16.7-34.3-42.1-38-71.1c-6.5-7.1-12.6-14.6-18.2-22.5&#10;&#9;&#9;&#9;&#9;C-4,226.8,35.7,139.8,114.2,97.6z" style="fill: rgb(141, 151, 179);"/>
			
				<linearGradient id="SVGID_32_" gradientUnits="userSpaceOnUse" x1="109.2586" y1="296.9594" x2="520.4011" y2="296.9594" gradientTransform="matrix(-1.0011 -0.2574 -0.2562 0.9838 712.1252 59.036)">
				<stop offset="0" style="stop-color:#F6B1CF"/>
				<stop offset="1" style="stop-color:#082635"/>
			</linearGradient>
			<path class="st40" d="M262.9,387.4c96.2,17,228.4-27.7,268.8-91.9c40.4-64.2-125.5-150.8-255.9-165.8&#10;&#9;&#9;&#9;&#9;C145.5,114.7,66.4,258.5,125.2,320C168.8,365.7,234.6,382.4,262.9,387.4z" style="opacity: 0.9; fill: url('#SVGID_32_');"/>
			<path class="st26" d="M265.7,379.7c93.1,16.5,221.1-27.8,260.4-91.1c39.3-63.2-121-147.9-247.2-162.4&#10;&#9;&#9;&#9;&#9;C152.8,111.8,75.8,253.4,132.5,313.7C174.7,358.6,238.3,374.8,265.7,379.7z" style="opacity: 0.3; fill: rgb(255, 255, 255);"/>
			<path class="st27" d="M261.7,370.9c90.1,16,214.1-27,252.1-88.2c38-61.2-117.2-143.2-239.4-157.2&#10;&#9;&#9;&#9;&#9;C152.3,111.6,77.8,248.6,132.7,307C173.5,350.5,235.1,366.2,261.7,370.9z" style="opacity: 0.4; fill: rgb(255, 255, 255);"/>
			<path class="st28" d="M263.3,355.9c84.3,14.9,200.3-25.4,235.9-82.8c35.6-57.4-109.5-134.3-223.8-147.4&#10;&#9;&#9;&#9;&#9;C161.2,112.6,91.4,241.2,142.8,296C180.9,336.7,238.5,351.5,263.3,355.9z" style="opacity: 0.5; fill: rgb(255, 255, 255);"/>
			<path class="st29" d="M264.8,346.6c84.3,14.9,199.9-23.1,235.1-78c35.2-54.9-110.3-129.7-224.5-143&#10;&#9;&#9;&#9;&#9;C161.2,112.4,92.4,235.4,144,288.4C182.4,327.7,240,342.3,264.8,346.6z" style="opacity: 0.6; fill: rgb(255, 255, 255);"/>
		</g>
	</g>
</svg>